# xmcd
#
# Track frame offsets:
#	150
#	13600
#	29807
#	44120
#	59046
#	73334
#	85404
#	100194
#	116395
#	129986
#	143262
#	161020
#	190344
#
# Disc length: 2674 seconds
#
# Revision: 0
# Processed by: cddbd v1.5.1PL2 Copyright (c) Steve Scherf et al.
# Submitted via: dBpowerAMP V4.0
#
DISCID=bd0a700d
DTITLE=Peter Cetera - You Just Gotta Love Christmas
DYEAR=2004
DGENRE=Christmas
TTITLE0=Let It Snow
TTITLE1=The Christmas Song
TTITLE2=Santa Claus is Coming To Town
TTITLE3=Blue Christmas (with Claire Cetera)
TTITLE4=Deck The Halls (with Alison Krauss)
TTITLE5=I'll Be Home For Christmas
TTITLE6=You Just Gotta Love Christmas
TTITLE7=Jingle Bells
TTITLE8=God Rest Ye Merry Gentlemen
TTITLE9=Winter Wonderland (with Claire Cetera)
TTITLE10=Something That Santa Claus Left Behind
TTITLE11=Alone For The Holidays
TTITLE12=DATA
EXTD=
EXTT0=
EXTT1=
EXTT2=
EXTT3=
EXTT4=
EXTT5=
EXTT6=
EXTT7=
EXTT8=
EXTT9=
EXTT10=
EXTT11=
EXTT12=
PLAYORDER=
